<?xml version="1.0" encoding="utf-8"?>
<!-- Generator: Adobe Illustrator 23.0.3, SVG Export Plug-In . SVG Version: 6.00 Build 0)  -->
<svg version="1.1" id="Layer_1" xmlns="http://www.w3.org/2000/svg" xmlns:xlink="http://www.w3.org/1999/xlink" x="0px" y="0px"
	 viewBox="0 0 114.8 136.9" style="enable-background:new 0 0 114.8 136.9;" xml:space="preserve">
<style type="text/css">
	.st0{opacity:0.47;}
	.st1{fill:#0093F0;}
</style>
<g class="st0">
	<path class="st1" d="M94.2,80L78.4,98.2L67.7,88.1l-5.2,6.1l10.7,10.1l0,0l5.4,5.1l20.9-24.3L94.2,80z"/>
	<path class="st1" d="M20.3,47.2h52.9v8.3H20.3V47.2L20.3,47.2z"/>
	<path class="st1" d="M91.1,64V22.5c0-6-4.6-10.9-10.3-10.9H15.4c-5.7,0-10.3,4.9-10.3,10.9v83.3c0,6,4.6,10.9,10.3,10.9h42.4
		c5.7,6.6,13.9,10.7,22.9,10.7c17.1,0,31-14.6,31-32.6C111.7,80.5,103.1,68.5,91.1,64z M49.8,95.5c0.1,4.5,1.1,8.8,2.8,12.7h-40
		V18.7h71.5v43.6c-1.1-0.1-2.2-0.2-3.4-0.2c-6,0-11.6,1.8-16.4,4.9H20.3v8.3h35.6c-2.4,3.5-4.3,7.5-5.2,11.9H20.3v8.3H49.8
		L49.8,95.5z M80.8,119.3c-12.9,0-23.4-11-23.4-24.6s10.5-24.6,23.4-24.6s23.4,11,23.4,24.6S93.7,119.3,80.8,119.3z"/>
</g>
</svg>
