<?xml version="1.0" encoding="utf-8"?>
<!-- Generator: Adobe Illustrator 23.0.3, SVG Export Plug-In . SVG Version: 6.00 Build 0)  -->
<svg version="1.1" id="Layer_1" xmlns="http://www.w3.org/2000/svg" xmlns:xlink="http://www.w3.org/1999/xlink" x="0px" y="0px"
	 viewBox="0 0 114.5 136.9" style="enable-background:new 0 0 114.5 136.9;" xml:space="preserve">
<style type="text/css">
	.st0{fill:none;}
	.st1{opacity:0.47;}
	.st2{fill:#0093F0;}
</style>
<g>
	<title>background</title>
	<rect id="canvas_background" x="-1" y="-1" class="st0" width="582" height="402"/>
</g>
<g class="st1">
	<title>Layer 1</title>
	<path id="svg_2" class="st2" d="M57.3,17.1c23.7,0,42.9,23,42.9,51.3s-19.3,51.3-42.9,51.3s-42.9-23-42.9-51.3S33.6,17.1,57.3,17.1
		 M57.3,0C25.6,0,0,30.6,0,68.4s25.6,68.4,57.3,68.4s57.3-30.6,57.3-68.4S88.9,0,57.3,0L57.3,0z"/>
	<path id="svg_3" class="st2" d="M76.7,79.5L64.4,64.8V34.2H50v34.2c0,2.6,1,4.8,2.5,6.4l14,16.8L76.7,79.5z"/>
</g>
</svg>
