<?xml version="1.0" encoding="utf-8"?>
<!-- Generator: Adobe Illustrator 23.0.3, SVG Export Plug-In . SVG Version: 6.00 Build 0)  -->
<svg version="1.1" id="Layer_3" xmlns="http://www.w3.org/2000/svg" xmlns:xlink="http://www.w3.org/1999/xlink" x="0px" y="0px"
	 viewBox="0 0 512 512" style="enable-background:new 0 0 512 512;" xml:space="preserve">
<style type="text/css">
	.st0{fill:#035AA6;}
</style>
<g>
	<path class="st0" d="M304.5,317.9l-55.6-17.1c18.2-15.7,31.4-37.1,36.6-61.4c19.4-2.7,34.5-19.3,34.5-39.4c0-13-6.3-24.5-16-31.8
		V80c0-25.3-19.7-46.2-44.6-47.9C242.7,16.5,221,8,198.1,8h-60.1C88.3,8,48,48.3,48,97.9v70.3c-9.7,7.3-16,18.8-16,31.8
		c0,20.2,15.1,36.7,34.5,39.4c5.2,24.3,18.4,45.7,36.6,61.4l-55.6,17.1C23.9,325.2,8,346.7,8,371.5V496c0,4.4,3.6,8,8,8h320
		c4.4,0,8-3.6,8-8V371.5C344,346.7,328.1,325.2,304.5,317.9z M218.3,381.7l11.5,11.5L176,480.7l-53.9-87.5l11.5-11.5
		c2.1-2.1,2.9-5.2,2-8s-3.2-4.9-6.1-5.5L96,361.4v-41.7l19.4-6l53.2,129.3c1.2,3,4.2,4.9,7.4,4.9s6.2-2,7.4-5l53.2-129.3l19.4,6
		v41.7l-33.6,6.7c-2.9,0.6-5.2,2.7-6.1,5.5C215.5,376.5,216.3,379.6,218.3,381.7L218.3,381.7z M135.3,320.2
		c12.6,4.9,26.3,7.8,40.7,7.8s28-2.8,40.7-7.8L176,419L135.3,320.2z M243.5,152h-135c2.2-4.9,3.5-10.3,3.5-16v-15.4
		c0-9.1,7.4-16.6,16.6-16.6c3.3,0,6.5,1,9.2,2.8l4.5,3c20,13.4,47.5,13.4,67.5,0l4.5-3c2.7-1.8,5.9-2.8,9.2-2.8
		c9.1,0,16.6,7.4,16.6,16.6V136C240,141.7,241.3,147.1,243.5,152L243.5,152z M95.7,168h160.5c4.6,3.4,9.9,6,15.7,7.2v20.6
		c-18.7,13-41.2,20.2-64,20.2c-3,0-5.9-1.2-8-3.3l-4.7-4.7c-10.3-10.3-28.3-10.3-38.6,0l-4.7,4.7c-2.1,2.1-5,3.3-8,3.3
		c-22.8,0-45.3-7.2-64-20.2v-20.6C85.8,174,91.1,171.4,95.7,168L95.7,168z M287.7,222.6c0.1-2.2,0.3-4.4,0.3-6.6v-38.5
		c9.3,3.3,16,12.1,16,22.5C304,210.5,297.1,219.4,287.7,222.6z M64,97.9C64,57.2,97.2,24,137.9,24h60.1c19.8,0,38.3,7.7,52.3,21.7
		c1.5,1.5,3.5,2.3,5.6,2.3c17.6,0,32,14.4,32,32v80.8c-2.6-0.5-5.3-0.8-8-0.8c-13.2,0-24-10.8-24-24v-15.4c0-18-14.6-32.6-32.6-32.6
		c-6.4,0-12.7,1.9-18.1,5.5l-4.5,3c-14.8,9.9-35,9.9-49.8,0l-4.5-3c-5.4-3.6-11.6-5.5-18.1-5.5c-18,0-32.6,14.6-32.6,32.6V136
		c0,13.2-10.8,24-24,24c-2.7,0-5.4,0.3-8,0.8L64,97.9z M48,200c0-10.4,6.7-19.2,16-22.5V216c0,2.2,0.2,4.4,0.3,6.6
		C54.9,219.4,48,210.5,48,200z M80,216v-1.3c19.4,11.2,41.6,17.3,64,17.3c7.3,0,14.2-2.8,19.3-8l4.7-4.7c4.3-4.3,11.7-4.3,16,0
		l4.7,4.7c5.2,5.2,12,8,19.3,8c22.4,0,44.6-6.1,64-17.3v1.3c0,52.9-43.1,96-96,96S80,268.9,80,216z M24,371.5
		c0-17.7,11.3-33,28.2-38.2l27.8-8.5V368c0,3.8,2.7,7.1,6.4,7.8l25.3,5.1l-5.4,5.4c-2.6,2.6-3.1,6.7-1.2,9.8l56.5,91.8H80v-88H64v88
		H24L24,371.5z M328,488h-40v-88h-16v88h-81.7l56.5-91.8c1.9-3.2,1.5-7.2-1.2-9.8l-5.4-5.4l25.3-5.1c3.7-0.7,6.4-4,6.4-7.8v-43.3
		l27.8,8.5c16.9,5.2,28.2,20.6,28.2,38.2V488z"/>
	<path class="st0" d="M176,288c17.7,0,34.2-8.8,44-23.5l2.7-4l-13.3-8.9l-2.7,4c-6.8,10.3-18.3,16.4-30.7,16.4s-23.8-6.1-30.7-16.4
		l-2.7-4l-13.3,8.9l2.7,4C141.8,279.2,158.3,288,176,288z"/>
	<path class="st0" d="M456,364.2V328h16v-16h-80v16h16v36.2c-28.6,10.1-48,37.1-48,67.8c0,39.7,32.3,72,72,72s72-32.3,72-72
		C504,401.3,484.6,374.2,456,364.2z M418,377.8c3.5-0.9,6-4.1,6-7.8V328h16v42.1c0,3.6,2.5,6.8,6,7.8c24.7,6.4,42,28.6,42,54.2
		c0,8.6-2,16.7-5.5,24h-19.9c-12.5,0-24.2-4.8-33-13.7c-11.8-11.8-27.6-18.3-44.3-18.3h-8.7C379.9,402,395.9,383.5,418,377.8
		L418,377.8z M376.6,440h8.7c12.5,0,24.2,4.8,33,13.7c11.8,11.8,27.6,18.3,44.3,18.3h8.5c-10.1,9.9-23.9,16-39.1,16
		C403.8,488,380.5,467.1,376.6,440z"/>
	<path class="st0" d="M408,296c13.2,0,24-10.8,24-24s-10.8-24-24-24s-24,10.8-24,24S394.8,296,408,296z M408,264c4.4,0,8,3.6,8,8
		s-3.6,8-8,8s-8-3.6-8-8S403.6,264,408,264z"/>
	<path class="st0" d="M456,248c17.6,0,32-14.4,32-32s-14.4-32-32-32s-32,14.4-32,32S438.4,248,456,248z M456,200c8.8,0,16,7.2,16,16
		s-7.2,16-16,16s-16-7.2-16-16S447.2,200,456,200z"/>
	<path class="st0" d="M132,200c6.6,0,12-5.4,12-12s-5.4-12-12-12s-12,5.4-12,12S125.4,200,132,200z"/>
	<path class="st0" d="M220,200c6.6,0,12-5.4,12-12s-5.4-12-12-12s-12,5.4-12,12S213.4,200,220,200z"/>
</g>
</svg>
