<?xml version="1.0" encoding="utf-8"?>
<!-- Generator: Adobe Illustrator 23.0.3, SVG Export Plug-In . SVG Version: 6.00 Build 0)  -->
<svg version="1.1" id="Layer_1" xmlns="http://www.w3.org/2000/svg" xmlns:xlink="http://www.w3.org/1999/xlink" x="0px" y="0px"
	 viewBox="0 0 114.5 137.8" style="enable-background:new 0 0 114.5 137.8;" xml:space="preserve">
<style type="text/css">
	.st0{opacity:0.47;fill:#0093F0;enable-background:new    ;}
</style>
<path class="st0" d="M58.2,76.1c-0.2-0.1-0.5-0.1-0.7,0c-2.5-0.3-4.3-2.5-4.3-5c0-1.2-1-2.2-2.2-2.2c-1.2,0-2.2,1-2.2,2.2
	c0,4.3,2.8,8,6.8,9.2v2.2c0,1.2,1,2.2,2.2,2.2c1.2,0,2.2-1,2.2-2.2v-2.1c4.6-1,7.7-5.4,7.2-10.3c-0.5-4.9-4.4-8.5-9.1-8.5
	c-2.7,0-4.9-2.3-4.9-5.1s2.2-5.1,4.9-5.1c2.7,0,4.9,2.3,4.9,5.1c0,1.2,1,2.2,2.2,2.2s2.2-1,2.2-2.2c0-4.5-3-8.4-7.3-9.3v-2
	c0-1.2-1-2.2-2.2-2.2c-1.2,0-2.2,1-2.2,2.2v2.2c-4.4,1.3-7.3,5.7-6.7,10.4c0.6,4.7,4.5,8.3,9.1,8.3c2.7,0,4.8,2.2,4.9,5
	C63,73.7,60.9,76,58.2,76.1z"/>
<path class="st0" d="M26.8,63.9c0,17.9,14,32.3,31.2,32.3s31.2-14.5,31.2-32.3s-14-32.3-31.2-32.3C40.8,31.6,26.8,46,26.8,63.9z
	 M58.1,36C72.9,36,85,48.5,85,63.9S72.9,91.8,58.1,91.8S31.1,79.3,31.1,63.9C31.2,48.5,43.2,36,58.1,36z"/>
<path class="st0" d="M99.9,101.7L83,110c-2.3-4.5-6.8-7.3-11.7-7.5l-15.6-0.4c-2.5-0.1-4.9-0.7-7.1-1.9L47,99.3
	c-8.1-4.4-17.8-4.4-25.9,0l0.1-3.7c0-1.2-0.9-2.3-2.1-2.3L2.1,92.9c-1.2,0-2.2,0.9-2.2,2.2l-1,38.8c0,1.2,0.9,2.3,2.1,2.3l17.1,0.5
	h0.1c1.2,0,2.1-0.9,2.2-2.2l0.1-1.9l4.4-2.5c1.8-1,3.8-1.2,5.7-0.6l26.5,7.7c0.1,0,0.1,0,0.1,0c1.9,0.4,3.9,0.6,5.8,0.6
	c4.2,0,8.2-0.9,12-2.7c0.1-0.1,0.2-0.1,0.3-0.1l38.4-25.7c0.9-0.6,1.3-2,0.7-3C111.4,101,105.1,99,99.9,101.7z M3.3,131.7l0.9-34.3
	L17,97.7L16,132.1L3.3,131.7z M72.9,131.1c-4.7,2.2-9.9,2.8-14.9,1.7l-26.4-7.7c-3-0.9-6.1-0.5-8.9,1l-2.3,1.3l0.6-22.8
	c7.2-4.9,16.4-5.4,24-1.3l1.6,0.8c2.8,1.5,5.8,2.3,8.9,2.4l15.6,0.4c4.4,0.1,8.1,3.4,9,7.8L57,114.1c-1.2,0-2.2,0.9-2.2,2.2
	c0,1.2,0.9,2.3,2.1,2.3l25.6,0.7h0.1c1.2,0,2.1-0.9,2.2-2.2c0-1-0.1-1.9-0.2-2.9l17.3-8.5c0,0,0,0,0.1,0c2.5-1.3,5.4-0.9,7.4,1.1
	L72.9,131.1z"/>
<path class="st0" d="M60.2,25.3V4.1c0-1.2-1-2.2-2.2-2.2c-1.2,0-2.2,1-2.2,2.2v21.2c0,1.2,1,2.2,2.2,2.2
	C59.2,27.5,60.2,26.5,60.2,25.3z"/>
<path class="st0" d="M76.4,25.3V15.2c0-1.2-1-2.2-2.2-2.2S72,14,72,15.2v10c0,1.2,1,2.2,2.2,2.2C75.4,27.5,76.4,26.5,76.4,25.3z"/>
<path class="st0" d="M44.1,25.3V15.2c0-1.2-1-2.2-2.2-2.2c-1.2,0-2.2,1-2.2,2.2v10c0,1.2,1,2.2,2.2,2.2
	C43.1,27.5,44.1,26.5,44.1,25.3z"/>
</svg>
