<?xml version="1.0" encoding="utf-8"?>
<!-- Generator: Adobe Illustrator 23.0.3, SVG Export Plug-In . SVG Version: 6.00 Build 0)  -->
<svg version="1.1" id="Layer_6" xmlns="http://www.w3.org/2000/svg" xmlns:xlink="http://www.w3.org/1999/xlink" x="0px" y="0px"
	 viewBox="0 0 512 512" style="enable-background:new 0 0 512 512;" xml:space="preserve">
<style type="text/css">
	.st0{fill:#035AA6;}
</style>
<g>
	<path class="st0" d="M96,176.1H80v24H56v16h24v24h16v-24h24v-16H96V176.1z"/>
	<path class="st0" d="M136,112.1H40v48h96V112.1z M120,144.1H56v-16h64V144.1z"/>
	<path class="st0" d="M452.4,369.4c-16.8-11.2-33-17.8-45.9-23.1c-23-9.4-35.7-14.7-38.1-34.8c9.5-4.5,18-10.8,25.3-18.9
		c7.6-8.5,13.3-18.3,17.7-28.7c14.1-1.3,35.8-10.4,36.4-38.6l24.4-105.9l-1-2.4C421.7,1,296.7,8,296,8.1c-45.1,0-72,28.5-72,56
		c0,0.9,0.2,1.6,0.3,2.4c-38.2,15.7-43.2,52.7-40.1,70.9l24,88c0.7,28.1,22.4,37.2,36.5,38.5c4.4,10.4,10.1,20.2,17.7,28.7
		c7.1,8,15.5,14.1,24.8,18.7c-1.9,8.1-7.7,20.8-25,25.1c-22.3,5.6-46.3,19-59.6,33.9c-4.7-5.5-12.8-10.1-26.5-10.1
		c-25.3,0-32,15.7-32,24v80c0,1-0.4,24-32,24c-30.7,0-32-21.6-32-24v-80h16v-48h8v-32h32c15,0,32-17,32-32v-192H8v192
		c0,15,17,32,32,32v32h8v48h16v80c0,13.8,10,40,48,40s48-26.2,48-40l0-79.8c0.1-1.4,1.3-8.2,16-8.2s15.9,6.9,16,8v48h-16v72h40h8
		h280v-8C504,492.3,503.4,403.4,452.4,369.4L452.4,369.4z M152,96.1v160H24v-160H152z M24,272.1h128c0,6.1-9.9,16-16,16h-32H40
		C33.9,288.1,24,278.2,24,272.1z M88,304.1v16H56v-16H88z M80,336.1v32H64v-32H80z M417.6,246.3c4.2-15,6.1-30,6.8-42.9
		c3.8,3.1,7.5,9.1,7.5,20.7C432,238,424.4,243.8,417.6,246.3L417.6,246.3z M224,224.1c0-11.7,3.7-17.7,7.5-20.7
		c0.8,12.9,2.6,28,6.8,43C231.6,243.8,224,238,224,224.1z M274.2,281.9c-34-38-26.3-112.2-26.2-113.8c0.1-1.8,1.2-18.2,25.9-24.3
		l-3.9-15.5c-35.2,8.8-37.8,34.9-38,39.2c-0.2,1.7-0.8,8.5-0.9,18.1c-5,1.7-10.3,4.8-14.5,10.1l-16.7-61.4
		c-0.6-4.1-4.3-37.9,29.2-52.6c6.5,10.1,18.2,14.2,27,14.2v-16c-2.7,0-16-0.8-16-16c0-19.7,20.9-40,56.5-40
		c4.7-0.3,113.4-6,159.1,96.8l-17,73.8c-4.1-4.7-9-7.5-13.7-9c-0.1-10.4-0.8-17.5-0.9-18.4l-0.4-3.8l-3.3-2.1
		c-2.7-1.7-66.4-41.2-108.2-41.2c-15.9,0-21.3-4-23.2-6.5c-2.3-3.1-1.3-7-1.2-7.1l-7.6-2.4l-7.6-2.5c-0.4,1.2-3.6,11.7,3.4,21.3
		c6.3,8.8,18.5,13.2,36.2,13.2c32.2,0,82.9,28.7,96.4,36.7c1.1,15.8,3.1,76-26.5,109.1c-13.2,14.7-31.3,22.2-53.8,22.2
		C305.5,304.1,287.4,296.6,274.2,281.9L274.2,281.9z M328,320.1c8.9,0,17.3-1.1,25.1-3.1c2.9,16.3,11.5,25.7,22.9,32.6V376
		c0,1-0.3,24-16,24h-24v-24h-16v24h-24c-15.7,0-16-23-16-24v-30c12.6-7.5,19.2-19.2,22.1-29.3C310.1,318.9,318.7,320.1,328,320.1
		L328,320.1z M208,488.1h-16v-40h16V488.1z M224,488.1v-56h-16v-40c0-9.7,25.4-31.4,56-39.7v23.7c0,13.8,6.7,40,32,40h32h8h24
		c25.3,0,32-26.2,32-40v-18.5c2.8,1.2,5.6,2.3,8.4,3.5c13,5.3,27.6,11.3,43.1,21.6c35.8,23.8,42.8,83.7,44.1,105.3L224,488.1z"/>
	<path class="st0" d="M364.8,262.5l-9.6-12.8c-26.7,20-53.3,0.8-54.4,0l-9.6,12.8c7.5,5.6,21.6,12.2,37.8,12.2
		C340.4,274.7,352.8,271.5,364.8,262.5z"/>
	<path class="st0" d="M307.6,185.4c-17.7,11.8-28.8,2.1-30,0.9l-11.2,11.4c4.3,4.3,13.1,9.4,24.6,9.4c7.6,0,16.3-2.2,25.5-8.4
		L307.6,185.4z"/>
	<path class="st0" d="M388.4,198.7l-8.9-13.3c-17.7,11.8-28.8,2.1-30,0.9l-11.2,11.4c4.3,4.3,13.1,9.4,24.6,9.4
		C370.5,207.1,379.2,204.9,388.4,198.7L388.4,198.7z"/>
	<path class="st0" d="M425.5,140.7l13-9.3c-1.7-2.4-43.2-59.4-110.5-59.4v16C387,88.1,425.1,140.2,425.5,140.7z"/>
	<path class="st0" d="M236.4,104.9c-0.8,0.4-19.1,9.8-28,36.6l15.2,5.1c6.7-20.2,19.5-27.1,20.1-27.4l-3.6-7.1L236.4,104.9z"/>
</g>
</svg>
