<?xml version="1.0" encoding="utf-8"?>
<!-- Generator: Adobe Illustrator 23.0.3, SVG Export Plug-In . SVG Version: 6.00 Build 0)  -->
<svg version="1.1" id="Layer_1" xmlns="http://www.w3.org/2000/svg" xmlns:xlink="http://www.w3.org/1999/xlink" x="0px" y="0px"
	 viewBox="0 0 512 512" style="enable-background:new 0 0 512 512;" xml:space="preserve">
<style type="text/css">
	.st0{fill:#035AA6;}
</style>
<g>
	<g>
		<g>
			<path class="st0" d="M163.2,493.5h-24.7v-102c0-19.8,10.1-37.8,27.1-48.1c4.2-2.5,5.5-7.9,3-12.1c-2.5-4.2-7.9-5.5-12.1-3
				c-22.3,13.5-35.6,37.2-35.6,63.2v110.8c0,4.9,3.9,8.8,8.8,8.8h33.5c4.9,0,8.8-3.9,8.8-8.8C172,497.4,168.1,493.5,163.2,493.5z"/>
		</g>
	</g>
	<g>
		<g>
			<path class="st0" d="M205.5,198.4c-4.9,0-8.8,3.9-8.8,8.8v14.1c0,4.9,3.9,8.8,8.8,8.8s8.8-3.9,8.8-8.8v-14.1
				C214.3,202.3,210.3,198.4,205.5,198.4z"/>
		</g>
	</g>
	<g>
		<g>
			<path class="st0" d="M336.4,179.2c-14.5-14.5-38.2-14.5-52.7,0c-3.4,3.4-3.4,9,0,12.5c3.4,3.4,9,3.4,12.5,0
				c7.7-7.7,20.1-7.7,27.8,0c1.7,1.7,4,2.6,6.2,2.6s4.5-0.9,6.2-2.6C339.8,188.2,339.8,182.7,336.4,179.2z"/>
		</g>
	</g>
	<g>
		<g>
			<path class="st0" d="M231.8,179.2c-7-7-16.4-10.9-26.4-10.9c-10,0-19.3,3.9-26.4,10.9c-3.4,3.4-3.4,9,0,12.5
				c3.4,3.4,9,3.4,12.5,0c3.7-3.7,8.7-5.8,13.9-5.8c5.3,0,10.2,2,13.9,5.8c1.7,1.7,4,2.6,6.2,2.6c2.3,0,4.5-0.9,6.2-2.6
				C235.3,188.2,235.3,182.7,231.8,179.2z"/>
		</g>
	</g>
	<g>
		<g>
			<path class="st0" d="M310,198.4c-4.9,0-8.8,3.9-8.8,8.8v14.1c0,4.9,3.9,8.8,8.8,8.8s8.8-3.9,8.8-8.8v-14.1
				C318.8,202.3,314.9,198.4,310,198.4z"/>
		</g>
	</g>
	<g>
		<g>
			<path class="st0" d="M287.3,272.3c-3.4-3.4-9-3.4-12.5,0c-4.5,4.5-10.6,7.1-17,7.1c-6.4,0-12.5-2.5-17-7.1c-3.4-3.4-9-3.4-12.5,0
				s-3.4,9,0,12.5c7.9,7.9,18.4,12.2,29.5,12.2s21.6-4.3,29.5-12.2C290.7,281.3,290.7,275.7,287.3,272.3z"/>
		</g>
	</g>
	<g>
		<g>
			<path class="st0" d="M267,231.4h-0.4v-18.2c0-4.9-3.9-8.8-8.8-8.8s-8.8,3.9-8.8,8.8v18.2h-0.4c-4.9,0-8.8,3.9-8.8,8.8
				s3.9,8.8,8.8,8.8H267c4.9,0,8.8-3.9,8.8-8.8S271.8,231.4,267,231.4z"/>
		</g>
	</g>
	<g>
		<g>
			<path class="st0" d="M430,125.1c-3.1-12.3-13.2-43.8-38.7-71.8C358.8,17.7,313.9,0.1,257.6,1c-0.3,0-0.6,0-0.9,0.1
				c-2.8,0.3-62.3,8.1-73.1,43.8c-5-1.3-11.4-2.4-18.3-2.4c-0.1,0-0.2,0-0.3,0c-15.3,0-36,5.3-48.9,30.3
				c-12.6,24.5-17.9,67.3-6.2,97.8c-6.9,6.7-10.9,16-10.9,25.9c0,16.3,10.7,30.1,25.6,34.6c-1.4,32.5,13.7,64,40.2,83.3l48.2,35
				c13.4,9.7,29.1,14.6,44.8,14.6c15.7,0,31.4-4.9,44.8-14.6l48.2-35c3.9-2.9,7.7-6,11.2-9.5c3.1-2.6,24.7-21.1,43.6-50.8
				C432.3,211.9,440.8,167.3,430,125.1z M126.2,212.7c-5.7-3.2-9.6-9.3-9.6-16.3c0-6.4,3.3-12.3,8.7-15.8c1.3-0.8,2.7-1.4,4.1-1.9
				L126.2,212.7z M348.3,293.5c-2.5,2.4-5.1,4.5-7.9,6.6l-48.2,35c-20.6,15-48.3,15-68.9,0l-48.2-35c-22.8-16.6-35.4-44.4-32.6-72.5
				l5.7-58.7c23.9-9.7,43.8-35.5,53.9-50.7c12.1,14.5,37.3,37.9,73.3,37.9c1.7,0,3.5-0.1,5.3-0.2c26.6-1.7,46.5,5.9,59.3,22.6
				C362,207.2,359.8,257.7,348.3,293.5z M390.9,244.1c-6.3,9.9-12.9,18.5-18.9,25.5c1.9-12.1,2.7-24.3,2.3-36
				c-0.8-26.8-7.9-49.6-20.4-65.8c-16.6-21.6-41.6-31.5-74.4-29.4c-43.5,2.8-70.3-40-70.6-40.4c-1.6-2.7-4.6-4.3-7.7-4.2
				c-3.1,0.1-6,1.8-7.5,4.5c-0.1,0.1-6.7,12.1-17.3,25.1c-13.5,16.6-26.9,27.2-38.9,30.5c-3.1,0.9-5.5,3.4-6.2,6.5
				c-2,0.2-4,0.6-6,1.1c-9.2-26.9-2.8-63,6.4-80.8c7.1-13.9,17.9-20.7,33-20.8c0.1,0,0.2,0,0.3,0c12,0,22,4.4,22.1,4.5
				c2.7,1.2,5.9,1,8.4-0.6c2.5-1.6,4-4.4,4-7.4c0-28.4,53.7-37.1,58.9-37.8c116.6-1.5,147.7,84.5,154.5,110.9
				C422.6,167.3,415.2,205.8,390.9,244.1z"/>
		</g>
	</g>
	<g>
		<g>
			<path class="st0" d="M353,437.8h-47.6c-4.9,0-8.8,3.9-8.8,8.8v31.7c0,4.9,3.9,8.8,8.8,8.8H353c4.9,0,8.8-3.9,8.8-8.8v-31.7
				C361.8,441.7,357.8,437.8,353,437.8z M344.1,469.5h-29.9v-14.1h29.9V469.5z"/>
		</g>
	</g>
	<g>
		<g>
			<path class="st0" d="M210.1,437.8h-37.6c-4.9,0-8.8,3.9-8.8,8.8s3.9,8.8,8.8,8.8h37.6c4.9,0,8.8-3.9,8.8-8.8
				S215,437.8,210.1,437.8z"/>
		</g>
	</g>
	<g>
		<g>
			<path class="st0" d="M115.7,274.6H8.8c-4.9,0-8.8,3.9-8.8,8.8v173.8c0,4.9,3.9,8.8,8.8,8.8h92.8c4.9,0,8.8-3.9,8.8-8.8
				s-3.9-8.8-8.8-8.8h-84V292.2h98.1c4.9,0,8.8-3.9,8.8-8.8C124.5,278.5,120.5,274.6,115.7,274.6z"/>
		</g>
	</g>
	<g>
		<g>
			<path class="st0" d="M122.1,307.5H39.3c-4.9,0-8.8,3.9-8.8,8.8s3.9,8.8,8.8,8.8h82.8c4.9,0,8.8-3.9,8.8-8.8
				C130.9,311.4,127,307.5,122.1,307.5z"/>
		</g>
	</g>
	<g>
		<g>
			<path class="st0" d="M109.8,342.3H39.3c-4.9,0-8.8,3.9-8.8,8.8s3.9,8.8,8.8,8.8h70.5c4.9,0,8.8-3.9,8.8-8.8
				C118.6,346.2,114.7,342.3,109.8,342.3z"/>
		</g>
	</g>
	<g>
		<g>
			<path class="st0" d="M103.3,377.1h-64c-4.9,0-8.8,3.9-8.8,8.8s3.9,8.8,8.8,8.8h64c4.9,0,8.8-3.9,8.8-8.8S108.2,377.1,103.3,377.1
				z"/>
		</g>
	</g>
	<g>
		<g>
			<path class="st0" d="M103.3,412h-64c-4.9,0-8.8,3.9-8.8,8.8s3.9,8.8,8.8,8.8h64c4.9,0,8.8-3.9,8.8-8.8S108.2,412,103.3,412z"/>
		</g>
	</g>
	<g>
		<g>
			<path class="st0" d="M503.2,389.7H394.5c-0.6-25.4-13.8-48.3-35.6-61.5c-4.2-2.5-9.6-1.2-12.1,3c-2.5,4.2-1.2,9.6,3,12.1
				c17,10.3,27.1,28.3,27.1,48.1v7.1v94.9H266.6v-95.6l38.4,27.3c1.5,1.1,3.3,1.6,5.1,1.6c1.1,0,2.3-0.2,3.3-0.7
				c2.8-1.1,4.8-3.6,5.3-6.6l10.5-57.9c0.9-4.8-2.3-9.4-7.1-10.2c-4.8-0.9-9.4,2.3-10.2,7.1l-8,44.2l-41-29.1
				c-3.1-2.2-7.1-2.2-10.2,0l-41,29.1l-8-44.2c-0.9-4.8-5.5-8-10.2-7.1c-4.8,0.9-8,5.4-7.1,10.2l10.5,57.9c0.5,3,2.6,5.5,5.3,6.6
				c2.8,1.1,6,0.8,8.4-1l38.4-27.3v95.6h-48.1c-4.9,0-8.8,3.9-8.8,8.8s3.9,8.8,8.8,8.8h249c4.9,0,8.8-3.9,8.8-8.8s-3.9-8.8-8.8-8.8
				h-55.2v-16.3h99.8v16.3h-14.1c-4.9,0-8.8,3.9-8.8,8.8s3.9,8.8,8.8,8.8h22.9c4.9,0,8.8-3.9,8.8-8.8V398.6
				C512,393.7,508.1,389.7,503.2,389.7z M494.4,459.5h-99.8v-18.8h99.8V459.5z M494.4,423.1h-99.8v-15.8h99.8V423.1z"/>
		</g>
	</g>
	<g>
		<g>
			<circle class="st0" cx="234.9" cy="425.5" r="8.8"/>
		</g>
	</g>
</g>
</svg>
