<?xml version="1.0" encoding="utf-8"?>
<!-- Generator: Adobe Illustrator 23.0.3, SVG Export Plug-In . SVG Version: 6.00 Build 0)  -->
<svg version="1.1" id="Layer_1" xmlns="http://www.w3.org/2000/svg" xmlns:xlink="http://www.w3.org/1999/xlink" x="0px" y="0px"
	 viewBox="0 0 115 137.9" style="enable-background:new 0 0 115 137.9;" xml:space="preserve">
<style type="text/css">
	.st0{opacity:0.47;}
	.st1{fill:#0093F0;}
</style>
<g class="st0">
	<g>
		<path class="st1" d="M115,53.4c0-2.1-1.3-3.5-3.9-4l-34.7-6.3L60.9,3.6C60,1.2,58.9,0,57.5,0S55,1.2,54.1,3.6L38.6,43.1L3.9,49.4
			C1.3,50,0,51.3,0,53.4c0,1.2,0.6,2.6,1.7,4.2l25.2,30.8l-5.9,43.4c-0.1,0.8-0.1,1.4-0.1,1.7c0,1.2,0.2,2.2,0.7,3.1
			c0.5,0.8,1.2,1.3,2.2,1.3c0.8,0,1.7-0.3,2.8-1l31-20.5l31,20.5c1,0.7,1.9,1,2.8,1c1.9,0,2.8-1.4,2.8-4.3c0-0.8,0-1.3-0.1-1.7
			l-5.9-43.4l25.1-30.8C114.4,56.1,115,54.7,115,53.4z M78.6,84.4l5,36.6l-26.1-17.3L31.4,121l5-36.6L15.3,58.6l29.2-5.4l13.1-33.2
			l13.1,33.2l29.2,5.4L78.6,84.4z"/>
	</g>
</g>
</svg>
