<?xml version="1.0" encoding="utf-8"?>
<!-- Generator: Adobe Illustrator 23.0.3, SVG Export Plug-In . SVG Version: 6.00 Build 0)  -->
<svg version="1.1" id="Layer_1" xmlns="http://www.w3.org/2000/svg" xmlns:xlink="http://www.w3.org/1999/xlink" x="0px" y="0px"
	 viewBox="0 0 116 137.9" style="enable-background:new 0 0 116 137.9;" xml:space="preserve">
<style type="text/css">
	.st0{opacity:0.47;}
	.st1{fill:#0093F0;}
</style>
<g class="st0">
	<g>
		<g id="User">
			<g>
				<path class="st1" d="M58,94.8c18,0,32.6-21.3,32.6-47.4S76,0,58,0c-8.9,0-17.2,5.1-23.3,14.2c-6,8.9-9.3,20.7-9.3,33.2
					C25.4,73.5,40,94.8,58,94.8z M58,8.6c14,0,25.4,17.4,25.4,38.8S72,86.2,58,86.2S32.6,68.8,32.6,47.4C32.6,26,44,8.6,58,8.6z
					 M83.4,86.2c-2,0-3.6,1.9-3.6,4.3c0,2.4,1.6,4.3,3.6,4.3c14,0,25.4,13.5,25.4,30.2c0,2.4-1.6,4.3-3.6,4.3H10.9
					c-2,0-3.6-1.9-3.6-4.3c0-16.6,11.4-30.2,25.4-30.2c2,0,3.6-1.9,3.6-4.3c0-2.4-1.6-4.3-3.6-4.3C14.6,86.2,0,103.6,0,125
					c0,7.1,4.9,12.9,10.9,12.9h94.2c6,0,10.9-5.8,10.9-12.9C116,103.6,101.4,86.2,83.4,86.2z"/>
			</g>
		</g>
	</g>
</g>
</svg>
